<svg width="24" height="24" viewBox="0 0 24 24" fill="none" xmlns="http://www.w3.org/2000/svg">
<path fill-rule="evenodd" clip-rule="evenodd" d="M21 12C21 16.9706 16.9706 21 12 21C7.02944 21 3 16.9706 3 12C3 7.02944 7.02944 3 12 3C16.9706 3 21 7.02944 21 12ZM16.4254 9.99678C16.7392 9.68297 16.7392 9.17417 16.4254 8.86036C16.1115 8.54655 15.6027 8.54655 15.2889 8.86036L10.7143 13.435L8.71107 11.4318C8.39725 11.118 7.88846 11.118 7.57465 11.4318C7.26083 11.7456 7.26083 12.2544 7.57465 12.5682L10.1461 15.1396C10.4599 15.4535 10.9687 15.4535 11.2825 15.1396L16.4254 9.99678Z" fill="#00D280"/>
</svg>
